<?xml version="1.0" encoding="utf-8"?>
<!-- Generator: Adobe Illustrator 19.0.0, SVG Export Plug-In . SVG Version: 6.00 Build 0)  -->
<svg version="1.1" id="Layer_1" xmlns="http://www.w3.org/2000/svg" xmlns:xlink="http://www.w3.org/1999/xlink" x="0px" y="0px"
	 viewBox="0 0 200 100" style="enable-background:new 0 0 200 100;" xml:space="preserve">
<style type="text/css">
	.st0{fill:#191919;}
	.st1{fill:#A9A8A8;}
</style>
<rect id="XMLID_2_" x="9.9" y="20.3" class="st0" width="180.2" height="59.9"/>
<g id="XMLID_3_">
	<path id="XMLID_4_" class="st1" d="M22.9,73.2c-2.5-1.4-4.4-3.4-5.7-6.1c-1.3-2.7-2-5.9-2-9.6V26.8h6.7v30.8c0,3.5,0.9,6.2,2.6,8.1
		c1.8,1.9,4.2,2.9,7.4,2.9c3.2,0,5.7-1,7.5-2.9c1.8-1.9,2.7-4.6,2.7-8.1V26.8h6.7v30.6c0,3.8-0.7,7-2,9.6c-1.3,2.7-3.2,4.7-5.8,6.1
		c-2.5,1.4-5.6,2.1-9.1,2.1C28.4,75.3,25.4,74.6,22.9,73.2z"/>
	<g id="XMLID_6_">
		<g id="XMLID_42_">
			<path id="XMLID_43_" class="st1" d="M60,26.8h6.1l23.4,37l-0.8,0.9V26.8h6.7v47.9h-6.2L65.9,38.3l0.8-0.9v37.3H60V26.8z"/>
		</g>
	</g>
	<g id="XMLID_8_">
		<g id="XMLID_57_">
			<path id="XMLID_58_" class="st1" d="M107.3,26.8h6.7v47.9h-6.7V26.8z M111.8,68.4h10.8c3.5,0,6.3-0.9,8.2-2.8
				c1.9-1.8,2.9-4.4,2.9-7.8V43.8c0-3.3-1-5.9-2.9-7.8c-1.9-1.8-4.7-2.8-8.2-2.8h-10.8v-6.4h10.6c3.8,0,7.1,0.7,9.9,2
				c2.7,1.3,4.8,3.3,6.2,5.9c1.4,2.6,2.1,5.7,2.1,9.3v13.6c0,3.6-0.7,6.7-2.1,9.3c-1.4,2.6-3.5,4.5-6.2,5.9c-2.7,1.3-6,2-9.9,2
				h-10.6V68.4z"/>
		</g>
	</g>
	<g id="XMLID_11_">
		<g id="XMLID_61_">
			<path id="XMLID_62_" class="st1" d="M163.6,26.8h5.7L187,74.8h-7.2l-13.3-38.7l-13.3,38.7H146L163.6,26.8z M154.1,57.9h25.2v6.4
				h-25.2V57.9z"/>
		</g>
	</g>
</g>
</svg>
