<?xml version="1.0" encoding="utf-8"?>
<!-- Generator: Adobe Illustrator 19.0.0, SVG Export Plug-In . SVG Version: 6.00 Build 0)  -->
<svg version="1.1" id="Layer_1" xmlns="http://www.w3.org/2000/svg" xmlns:xlink="http://www.w3.org/1999/xlink" x="0px" y="0px"
	 viewBox="0 0 50 50" style="enable-background:new 0 0 50 50;" xml:space="preserve">
<style type="text/css">
	.st0{fill:#191919;}
	.st1{fill:#A9A8A8;}
</style>
<rect id="XMLID_2_" x="0" y="0" class="st0" width="50" height="50"/>
<g id="XMLID_3_">
	<path id="XMLID_4_" class="st1" d="M17.7,42.5c-2-1.1-3.5-2.7-4.5-4.7c-1-2.1-1.5-4.6-1.5-7.5V6.5H17v24c0,2.7,0.7,4.8,2.1,6.3
		c1.4,1.5,3.3,2.2,5.8,2.2c2.5,0,4.5-0.7,5.8-2.2c1.4-1.5,2.1-3.6,2.1-6.3v-24h5.2v23.8c0,2.9-0.5,5.4-1.5,7.5
		c-1,2.1-2.5,3.7-4.5,4.7c-2,1.1-4.3,1.6-7.1,1.6C22.1,44.2,19.7,43.6,17.7,42.5z"/>
</g>
</svg>
