<?xml version="1.0" standalone="no"?>
<!DOCTYPE svg PUBLIC "-//W3C//DTD SVG 20010904//EN"
 "http://www.w3.org/TR/2001/REC-SVG-20010904/DTD/svg10.dtd">
<svg version="1.0" xmlns="http://www.w3.org/2000/svg"
 width="700.000000pt" height="700.000000pt" viewBox="0 0 700.000000 700.000000"
 preserveAspectRatio="xMidYMid meet">
<metadata>
Created by potrace 1.11, written by Peter Selinger 2001-2013
</metadata>
<g transform="translate(0.000000,700.000000) scale(0.100000,-0.100000)"
fill="#000000" stroke="none">
<path d="M0 3500 l0 -3500 3500 0 3500 0 0 3500 0 3500 -3500 0 -3500 0 0
-3500z m2383 803 c3 -1642 5 -1795 20 -1873 54 -264 134 -432 283 -589 221
-235 586 -340 997 -286 241 32 412 105 552 237 102 96 151 159 209 268 52 98
89 205 119 340 21 94 21 109 24 1893 l4 1797 365 0 365 0 -4 -1812 c-3 -1924
-1 -1841 -53 -2096 -44 -219 -139 -472 -236 -627 -94 -149 -239 -304 -373
-400 -95 -68 -335 -188 -452 -225 -200 -64 -330 -86 -608 -100 -417 -22 -719
30 -1022 175 -168 80 -281 156 -400 269 -283 267 -421 557 -510 1066 -15 86
-17 276 -20 1923 l-4 1827 370 0 370 0 4 -1787z"/>
</g>
</svg>
